HIERARCHY
ROOT Hips
{
	OFFSET 0.000000 0.000000 0.000000
	CHANNELS 6 Xposition Yposition Zposition Zrotation Yrotation Xrotation 
	JOINT LHipJoint
	{
		OFFSET 0.000000 0.000000 0.000000
		CHANNELS 3 Zrotation Yrotation Xrotation
		JOINT LeftUpLeg
		{
			OFFSET 1.363060 -1.794630 0.839290
			CHANNELS 3 Zrotation Yrotation Xrotation
			JOINT LeftLeg
			{
				OFFSET 2.448110 -6.726130 0.000000
				CHANNELS 3 Zrotation Yrotation Xrotation
				JOINT LeftFoot
				{
					OFFSET 2.562200 -7.039590 0.000000
					CHANNELS 3 Zrotation Yrotation Xrotation
					JOINT LeftToeBase
					{
						OFFSET 0.157640 -0.433110 2.322550
						CHANNELS 3 Zrotation Yrotation Xrotation
						End Site
						{
							OFFSET 0.000000 0.000000 0.000000
						}
					}
				}
			}
		}
	}
	JOINT RHipJoint
	{
		OFFSET 0.000000 0.000000 0.000000
		CHANNELS 3 Zrotation Yrotation Xrotation
		JOINT RightUpLeg
		{
			OFFSET -1.305520 -1.794630 0.839290
			CHANNELS 3 Zrotation Yrotation Xrotation
			JOINT RightLeg
			{
				OFFSET -2.542530 -6.985550 0.000000
				CHANNELS 3 Zrotation Yrotation Xrotation
				JOINT RightFoot
				{
					OFFSET -2.568260 -7.056230 0.000000
					CHANNELS 3 Zrotation Yrotation Xrotation
					JOINT RightToeBase
					{
						OFFSET -0.164730 -0.452590 2.363150
						CHANNELS 3 Zrotation Yrotation Xrotation
						End Site
						{
							OFFSET 0.000000 0.000000 0.000000
						}
					}
				}
			}
		}
	}
}
MOTION
Frames: 25
Frame Time: 0.008333
-11.589720 15.613548 -0.288814 -36.352511 87.850129 -7.764731 -11.679731 1.163245 -5.470144 -6.855471 14.561490 -26.838403 -2.015119 3.319371 53.406539 0.899867 2.888396 -18.571650 -0.814500 -0.000000 -68.962900 7.943858 1.129963 -1.523567 18.202852 -1.310439 -71.187094 2.296724 -5.590540 53.078986 -0.980678 -1.177887 -11.994788 0.032100 0.000000 -16.091700
-11.386158 15.582843 -0.264160 -32.048966 88.139788 -3.721565 -11.764036 1.264603 -5.404120 -6.569645 14.244572 -25.848819 -1.880822 3.320842 53.609013 0.826378 2.707440 -17.383035 -0.682000 0.000001 -70.271800 7.998105 1.260980 -1.667355 17.568366 -1.488489 -70.860628 2.049072 -5.680164 55.045058 -1.173817 -1.809865 -13.401759 0.154800 -0.000000 -11.570300
-11.183533 15.553108 -0.241586 -29.323501 88.386154 -1.216932 -11.834838 1.345630 -5.320370 -6.239940 13.810636 -24.989135 -1.719986 3.331219 53.957481 0.769310 2.617393 -16.132985 -0.569800 -0.000000 -70.986800 8.050592 1.359663 -1.807435 17.073984 -1.621466 -70.473219 1.832048 -5.757783 56.849563 -1.375570 -2.493627 -14.803772 0.308400 0.000000 -8.707700
-10.982197 15.525134 -0.220992 -28.913682 88.614103 -0.981903 -11.894334 1.399357 -5.219612 -5.889061 13.256240 -24.277367 -1.532318 3.345059 54.462944 0.733075 2.641189 -14.854670 -0.479600 -0.000001 -70.953399 8.097401 1.416884 -1.940085 16.717084 -1.719820 -70.040860 1.649430 -5.827212 58.462652 -1.579072 -3.195780 -16.174711 0.491600 0.000000 -7.252100
-10.782951 15.499747 -0.202382 -31.381290 88.852080 -3.591068 -11.952320 1.413126 -5.109647 -5.534649 12.594198 -23.702254 -1.318079 3.354991 55.130086 0.719333 2.785678 -13.586461 -0.408700 -0.000001 -70.024000 8.129939 1.419338 -2.069940 16.484840 -1.812517 -69.562582 1.502968 -5.894273 59.875041 -1.776703 -3.879390 -17.497339 0.699600 -0.000000 -6.889500
-10.585741 15.477401 -0.185540 -37.302366 89.131100 -9.601115 -12.032837 1.372572 -4.984737 -5.207483 11.826840 -23.308041 -1.079738 3.353668 55.975305 0.730837 3.067660 -12.394637 -0.355701 0.000000 -68.110800 8.126402 1.348799 -2.182536 16.352144 -1.896949 -69.078908 1.389253 -5.959433 61.071791 -1.965519 -4.534240 -18.723442 0.921800 -0.000000 -7.553100
-10.390979 15.458480 -0.170217 -46.001239 89.433730 -18.339981 -12.168137 1.284355 -4.847081 -4.938882 10.987077 -23.100800 -0.829862 3.348630 56.992596 0.767264 3.488623 -11.340560 -0.316801 -0.000000 -65.166599 8.063009 1.215877 -2.282601 16.285376 -1.978763 -68.593210 1.300056 -6.012896 62.069377 -2.140489 -5.137035 -19.834577 1.148300 -0.000000 -8.977500
-10.198978 15.443227 -0.156058 -55.863242 89.701391 -28.191111 -12.358573 1.179849 -4.699902 -4.745863 10.122856 -23.098214 -0.587817 3.359994 58.169597 0.827543 4.045554 -10.486100 -0.290000 -0.000000 -61.238400 7.945229 1.063837 -2.374207 16.263180 -2.038694 -68.102295 1.226380 -6.039946 62.888940 -2.298289 -5.673293 -20.820623 1.369700 -0.000001 -10.874600
-10.010001 15.431780 -0.142722 -65.243664 89.891518 -37.509473 -12.566081 1.085385 -4.550582 -4.619862 9.277122 -23.311527 -0.365783 3.399944 59.493445 0.909433 4.726283 -9.879657 -0.275800 0.000001 -56.485200 7.809885 0.931519 -2.457139 16.278744 -2.062684 -67.601875 1.165008 -6.038056 63.550099 -2.437644 -6.137710 -21.687259 1.579600 0.000000 -12.922500
-9.824356 15.424118 -0.129545 107.095835 89.994406 134.938747 -12.746929 1.006453 -4.407311 -4.555376 8.471325 -23.738244 -0.164712 3.464595 60.945858 1.010565 5.517351 -9.542143 -0.277600 0.000000 -51.213500 7.696135 0.832556 -2.527543 16.315769 -2.060041 -67.098627 1.116806 -6.017796 64.077405 -2.559052 -6.528746 -22.462873 1.776100 -0.000001 -14.735300
-9.642204 15.420224 -0.116748 100.461633 89.929592 128.453418 -12.903459 0.929429 -4.273560 -4.531660 7.724561 -24.373200 0.018635 3.546857 62.505931 1.126633 6.389162 -9.472328 -0.300400 -0.000001 -45.737500 7.601845 0.752583 -2.584167 16.371481 -2.040114 -66.596388 1.080478 -5.985524 64.489946 -2.664971 -6.858545 -23.152348 1.957200 -0.000000 -16.212700
-9.463683 15.419945 -0.103890 94.773899 89.891783 122.949552 -13.030498 0.849903 -4.150783 -4.552996 7.040381 -25.204019 0.186790 3.640992 64.140497 1.255130 7.322086 -9.641593 -0.349700 -0.000001 -40.432300 7.531885 0.689731 -2.626977 16.425168 -2.016673 -66.104592 1.054115 -5.946830 64.812926 -2.757957 -7.135412 -23.778473 2.124400 0.000000 -17.208799
-9.288778 15.423094 -0.091047 89.401728 89.866153 117.793828 -13.136455 0.763734 -4.037390 -4.612578 6.421900 -26.222743 0.340762 3.745256 65.818927 1.392565 8.286530 -10.022599 -0.431000 0.000000 -35.549600 7.478580 0.639883 -2.657722 16.472836 -1.994840 -65.629318 1.035221 -5.902457 65.063575 -2.841121 -7.372226 -24.350558 2.279700 0.000000 -17.740600
-9.117866 15.429588 -0.077561 84.539652 89.835935 113.167498 -13.211587 0.672498 -3.936598 -4.727245 5.862244 -27.393841 0.483419 3.854760 67.492864 1.537179 9.266607 -10.534445 -0.541600 0.000000 -31.608600 7.450695 0.608909 -2.682928 16.489168 -1.995131 -65.167426 1.021818 -5.856626 65.259551 -2.914565 -7.573264 -24.876544 2.423100 0.000000 -17.926300
-8.950432 15.439080 -0.064342 79.172648 89.806117 108.062706 -13.273732 0.574222 -3.841020 -4.869301 5.362414 -28.728575 0.611835 3.973747 69.148619 1.682602 10.211381 -11.198789 -0.689400 -0.000001 -28.112400 7.430271 0.589897 -2.702079 16.502445 -2.005308 -64.727031 1.012545 -5.804805 65.401800 -2.982465 -7.755217 -25.352910 2.556600 -0.000000 -17.914200
-8.786713 15.451490 -0.050911 73.689628 89.770132 102.852997 -13.310318 0.471583 -3.755111 -5.051104 4.914670 -30.185713 0.728160 4.097531 70.741535 1.825724 11.099968 -11.938148 -0.865400 -0.000000 -25.458799 7.427570 0.587836 -2.723232 16.498161 -2.045078 -64.297078 1.007628 -5.751133 65.495699 -3.043217 -7.915758 -25.781337 2.678900 -0.000000 -17.880000
-8.626386 15.466568 -0.037766 67.860088 89.736335 97.308063 -13.324622 0.363999 -3.675061 -5.255927 4.513646 -31.758194 0.832486 4.225637 72.249030 1.960947 11.895567 -12.720847 -1.062600 0.000000 -23.570100 7.437216 0.598405 -2.747823 16.495784 -2.111769 -63.877252 1.008026 -5.695103 65.536252 -3.098020 -8.059727 -26.159157 2.790000 0.000000 -17.952600
-8.469210 15.484094 -0.025008 61.883904 89.708750 91.621436 -13.313309 0.251040 -3.600966 -5.478854 4.153433 -33.426232 0.924520 4.354972 73.650370 2.083132 12.566741 -13.530296 -1.273800 -0.000000 -22.218200 7.460205 0.618121 -2.778648 16.502553 -2.210961 -63.461273 1.015242 -5.638850 65.519331 -3.145992 -8.184589 -26.484123 2.888000 0.000000 -18.237400
-8.314871 15.503847 -0.012903 56.015712 89.693961 86.044683 -13.276527 0.129771 -3.531199 -5.710812 3.826641 -35.176052 1.005534 4.481534 74.929161 2.187779 13.090184 -14.329016 -1.485100 0.000000 -21.378200 7.494309 0.640313 -2.816778 16.528901 -2.344323 -63.045033 1.031035 -5.584324 65.438761 -3.186496 -8.287922 -26.753127 2.971300 -0.000001 -18.794500
-8.163015 15.525603 -0.001599 50.592115 89.693806 80.909950 -13.215753 -0.003055 -3.465018 -5.948915 3.526718 -36.992172 1.075992 4.601216 76.074383 2.271609 13.451266 -15.096234 -1.684500 0.000001 -20.912900 7.536700 0.658082 -2.862934 16.578508 -2.514293 -62.623324 1.056630 -5.533469 65.291209 -3.218439 -8.365397 -26.964521 3.037800 0.000000 -19.637700
-8.013269 15.549125 0.008786 45.886272 89.707338 76.487017 -13.134944 -0.150330 -3.401438 -6.192536 3.247535 -38.861251 1.136111 4.711117 77.079696 2.333023 13.646591 -15.815638 -1.861700 -0.000000 -20.689201 7.582873 0.665277 -2.917383 16.651634 -2.720976 -62.190654 1.092532 -5.487152 65.075953 -3.240953 -8.413093 -27.118669 3.086100 0.000000 -20.728500
-7.865263 15.574192 0.018184 42.061035 89.731416 72.935819 -13.038661 -0.313448 -3.339572 -6.443752 2.984447 -40.772238 1.185674 4.810042 77.942653 2.372552 13.685410 -16.479100 -2.010000 -0.000000 -20.567199 7.628359 0.658096 -2.979961 16.744650 -2.962076 -61.741794 1.138319 -5.445202 64.795983 -3.253525 -8.428613 -27.217720 3.115500 -0.000000 -21.993700
-7.718649 15.600594 0.026630 39.143942 89.759313 70.278821 -12.929105 -0.490988 -3.280277 -6.709210 2.735316 -42.710586 1.223826 4.898134 78.661638 2.392991 13.589756 -17.086514 -2.127499 0.000000 -20.414700 7.671565 0.636859 -3.051427 16.847611 -3.235319 -61.268484 1.193331 -5.406999 64.459712 -3.256127 -8.408465 -27.276558 3.128200 0.000000 -23.245300
-7.572896 15.628004 0.033909 37.074977 89.792243 68.461400 -12.810369 -0.682203 -3.218724 -6.985866 2.491885 -44.679281 1.250900 4.976291 79.239437 2.399013 13.391518 -17.636276 -2.215000 -0.000000 -20.223900 7.708717 0.600501 -3.127772 16.959702 -3.528748 -60.773829 1.254767 -5.370595 64.071663 -3.249393 -8.361211 -27.279964 3.122799 0.000000 -24.552900
-7.427797 15.656326 0.040209 35.743445 89.822929 67.364946 -12.679724 -0.882292 -3.158437 -7.284959 2.255447 -46.658079 1.265088 5.045243 79.673270 2.397036 13.130448 -18.146376 -2.281300 0.000000 -19.854300 7.743560 0.554153 -3.211136 17.064686 -3.841903 -60.245967 1.321755 -5.335784 63.647017 -3.234165 -8.284586 -27.256140 3.104700 0.000000 -25.645400
